<?xml version="1.0" encoding="UTF-8" standalone="no"?>
<!-- Created with Inkscape (http://www.inkscape.org/) -->

<svg
   width="256"
   height="256"
   viewBox="0 0 67.733332 67.733333"
   version="1.1"
   id="svg565"
   inkscape:version="1.2.2 (b0a8486541, 2022-12-01)"
   sodipodi:docname="electron-mail.svg"
   inkscape:export-filename="icon.png"
   inkscape:export-xdpi="192"
   inkscape:export-ydpi="192"
   xmlns:inkscape="http://www.inkscape.org/namespaces/inkscape"
   xmlns:sodipodi="http://sodipodi.sourceforge.net/DTD/sodipodi-0.dtd"
   xmlns:xlink="http://www.w3.org/1999/xlink"
   xmlns="http://www.w3.org/2000/svg"
   xmlns:svg="http://www.w3.org/2000/svg">
  <sodipodi:namedview
     id="namedview567"
     pagecolor="#ffffff"
     bordercolor="#000000"
     borderopacity="0.25"
     inkscape:showpageshadow="2"
     inkscape:pageopacity="0.0"
     inkscape:pagecheckerboard="0"
     inkscape:deskcolor="#d1d1d1"
     inkscape:document-units="px"
     showgrid="false"
     inkscape:zoom="1.6819304"
     inkscape:cx="173.61004"
     inkscape:cy="116.83004"
     inkscape:window-width="1368"
     inkscape:window-height="842"
     inkscape:window-x="-6"
     inkscape:window-y="-6"
     inkscape:window-maximized="1"
     inkscape:current-layer="layer1" />
  <defs
     id="defs562">
    <linearGradient
       inkscape:collect="always"
       id="linearGradient2006">
      <stop
         style="stop-color:#291261;stop-opacity:0.90980393;"
         offset="0.07602339"
         id="stop2002" />
      <stop
         style="stop-color:#333333;stop-opacity:0;"
         offset="1"
         id="stop2004" />
    </linearGradient>
    <linearGradient
       inkscape:collect="always"
       id="linearGradient889">
      <stop
         style="stop-color:#291261;stop-opacity:0.91052634;"
         offset="0"
         id="stop885" />
      <stop
         style="stop-color:#333333;stop-opacity:0;"
         offset="1"
         id="stop887" />
    </linearGradient>
    <inkscape:path-effect
       effect="fill_between_many"
       method="originald"
       linkedpaths="#path432,0,1"
       id="path-effect594" />
    <linearGradient
       inkscape:collect="always"
       xlink:href="#linearGradient889"
       id="linearGradient891"
       x1="33.370346"
       y1="51.390335"
       x2="33.370346"
       y2="100.77845"
       gradientUnits="userSpaceOnUse" />
    <linearGradient
       inkscape:collect="always"
       xlink:href="#linearGradient2006"
       id="linearGradient2008"
       x1="33.147877"
       y1="14.905421"
       x2="33.147877"
       y2="132.59151"
       gradientUnits="userSpaceOnUse" />
  </defs>
  <g
     inkscape:label="Capa 1"
     inkscape:groupmode="layer"
     id="layer1">
    <path
       inkscape:original-d="M 0,0"
       inkscape:path-effect="#path-effect594"
       d="M 0,0"
       id="path596"
       class="UnoptimicedTransforms"
       transform="matrix(1.0659431,0,0,1.0659431,-1.5572828,-0.88987588)" />
    <path
       id="path432-1"
       d="m 32.896313,3.372643 c -11.327058,0 -20.509662,9.182835 -20.509662,20.509896 v 4.016504 c -0.214639,0.05418 -0.424535,0.120318 -0.628889,0.197799 l 20.165345,14.994772 c 0.313163,0.232878 0.679252,0.35812 1.049874,0.377236 v 0.002 c 0.006,-1.91e-4 0.01215,-9.17e-4 0.01811,-9.17e-4 0.0071,3.12e-4 0.01442,9.17e-4 0.02162,0.001 v -0.002 c 0.37058,-0.01904 0.736742,-0.14461 1.049868,-0.377478 L 54.227928,28.09669 c -0.265157,-0.100518 -0.539651,-0.181935 -0.82175,-0.242939 V 23.88263 c 0,-11.327061 -9.182835,-20.5098963 -20.509887,-20.5098963 z m -0.169566,5.4081122 c 8.39633,0 15.203148,6.8068198 15.203148,15.2031458 v 3.738989 h -14.95691 v 2.42e-4 H 17.523356 v -3.739231 c 0,-8.396326 6.807059,-15.2031458 15.203386,-15.2031458 z"
       style="fill:url(#linearGradient2008);stroke-width:1.92665;fill-opacity:1"
       sodipodi:nodetypes="cscccccccccccsccssccccsss" />
    <path
       d="M 57.208158,30.184201 36.349483,45.694273 c -1.002693,0.745649 -2.186698,1.125664 -3.374457,1.140882 -1.184061,-0.01732 -2.363802,-0.397309 -3.363398,-1.140651 L 8.7529503,30.184434 c -0.470469,0.836374 -0.738955,1.801576 -0.738955,2.829534 v 25.046403 c 0,3.192246 2.5877927,5.779939 5.7799377,5.779939 H 33.00043 v -2.31e-4 h 19.166738 c 3.192158,0 5.77994,-2.587693 5.77994,-5.77995 V 33.013726 c 0,-1.027948 -0.268482,-1.993149 -0.73895,-2.829525 z"
       style="fill:url(#linearGradient891);stroke-width:1.92666;fill-opacity:1"
       id="path778" />
  </g>
</svg>
